<svg width="36" height="37" viewBox="0 0 36 37" fill="none" xmlns="http://www.w3.org/2000/svg">
<mask id="mask0_1_518" style="mask-type:luminance" maskUnits="userSpaceOnUse" x="9" y="9" width="18" height="18">
<path d="M17.99 26.5733C22.5925 26.5733 26.3233 22.8424 26.3233 18.2399C26.3233 13.6374 22.5925 9.90662 17.99 9.90662C13.3875 9.90662 9.65668 13.6374 9.65668 18.2399C9.65668 19.5733 9.97001 20.8333 10.5258 21.9508C10.6742 22.2474 10.7233 22.5866 10.6375 22.9074L10.1417 24.7624C10.0926 24.946 10.0926 25.1393 10.1418 25.3228C10.191 25.5064 10.2876 25.6738 10.4219 25.8082C10.5563 25.9426 10.7236 26.0393 10.9071 26.0886C11.0906 26.1379 11.2839 26.1381 11.4675 26.0891L13.3225 25.5924C13.6445 25.5114 13.985 25.5508 14.28 25.7033C15.4324 26.2771 16.7026 26.575 17.99 26.5733Z" fill="white"/>
<path d="M20.49 18.2399C20.49 18.461 20.5778 18.6729 20.7341 18.8292C20.8904 18.9855 21.1024 19.0733 21.3234 19.0733C21.5444 19.0733 21.7563 18.9855 21.9126 18.8292C22.0689 18.6729 22.1567 18.461 22.1567 18.2399C22.1567 18.0189 22.0689 17.807 21.9126 17.6507C21.7563 17.4944 21.5444 17.4066 21.3234 17.4066C21.1024 17.4066 20.8904 17.4944 20.7341 17.6507C20.5778 17.807 20.49 18.0189 20.49 18.2399ZM17.1567 18.2399C17.1567 18.461 17.2445 18.6729 17.4008 18.8292C17.5571 18.9855 17.769 19.0733 17.99 19.0733C18.211 19.0733 18.423 18.9855 18.5793 18.8292C18.7356 18.6729 18.8234 18.461 18.8234 18.2399C18.8234 18.0189 18.7356 17.807 18.5793 17.6507C18.423 17.4944 18.211 17.4066 17.99 17.4066C17.769 17.4066 17.5571 17.4944 17.4008 17.6507C17.2445 17.807 17.1567 18.0189 17.1567 18.2399ZM13.8234 18.2399C13.8234 18.461 13.9112 18.6729 14.0674 18.8292C14.2237 18.9855 14.4357 19.0733 14.6567 19.0733C14.8777 19.0733 15.0897 18.9855 15.246 18.8292C15.4022 18.6729 15.49 18.461 15.49 18.2399C15.49 18.0189 15.4022 17.807 15.246 17.6507C15.0897 17.4944 14.8777 17.4066 14.6567 17.4066C14.4357 17.4066 14.2237 17.4944 14.0674 17.6507C13.9112 17.807 13.8234 18.0189 13.8234 18.2399Z" fill="black"/>
</mask>
<g mask="url(#mask0_1_518)">
<path d="M7.98999 8.23999H27.99V28.24H7.98999V8.23999Z" fill="#637381"/>
</g>
</svg>
