<svg width="30" height="31" viewBox="0 0 30 31" fill="none" xmlns="http://www.w3.org/2000/svg">
<path d="M23.3233 15.8217C23.3217 17.0467 23.3125 18.0867 23.2433 18.9409C23.1625 19.9326 22.9967 20.7609 22.6267 21.4484C22.4652 21.7498 22.2602 22.0258 22.0183 22.2676C21.3242 22.9617 20.4408 23.2759 19.3208 23.4259C18.2267 23.5734 16.8233 23.5734 15.0342 23.5734H14.9458C13.1558 23.5734 11.7542 23.5734 10.6592 23.4259C9.54001 23.2759 8.65584 22.9617 7.96251 22.2676C7.34751 21.6525 7.02918 20.8876 6.86084 19.9384C6.69418 19.0051 6.66418 17.8451 6.65834 16.4042C6.65668 16.0376 6.65668 15.6501 6.65668 15.2401V15.1951C6.65668 13.4051 6.65668 12.0034 6.80418 10.9084C6.95418 9.78922 7.26834 8.90505 7.96251 8.21172C8.65584 7.51755 9.54001 7.20338 10.6592 7.05338C11.6325 6.92255 12.8842 6.90755 14.4083 6.90588C14.5626 6.90588 14.7106 6.96717 14.8196 7.07625C14.9287 7.18533 14.99 7.33328 14.99 7.48755C14.99 7.64182 14.9287 7.78977 14.8196 7.89885C14.7106 8.00793 14.5626 8.06922 14.4083 8.06922C12.8625 8.07088 11.7133 8.08422 10.8142 8.20505C9.82334 8.33838 9.22584 8.59172 8.78418 9.03338C8.34251 9.47505 8.09001 10.0734 7.95668 11.0651C7.82084 12.0734 7.81918 13.3967 7.81918 15.2401V15.8934L8.59584 15.2151C8.93628 14.9172 9.3772 14.7598 9.8293 14.7748C10.2814 14.7898 10.7109 14.9761 11.0308 15.2959L14.3558 18.6209C14.6138 18.879 14.9546 19.0378 15.3182 19.0694C15.6817 19.1009 16.0448 19.0032 16.3433 18.7934L16.575 18.6309C17.0057 18.3282 17.5263 18.1806 18.0517 18.2122C18.5771 18.2439 19.0763 18.4529 19.4675 18.8051L21.6617 20.7801C21.8825 20.3159 22.0142 19.7067 22.0842 18.8467C22.15 18.0367 22.1592 17.0534 22.16 15.8217C22.16 15.6674 22.2213 15.5195 22.3304 15.4104C22.4395 15.3013 22.5874 15.2401 22.7417 15.2401C22.8959 15.2401 23.0439 15.3013 23.153 15.4104C23.2621 15.5195 23.3233 15.6674 23.3233 15.8217Z" fill="#637381"/>
<path fill-rule="evenodd" clip-rule="evenodd" d="M19.5733 14.4066C17.8058 14.4066 16.9216 14.4066 16.3725 13.8574C15.8233 13.3083 15.8233 12.4241 15.8233 10.6566C15.8233 8.88912 15.8233 8.00495 16.3725 7.45578C16.9216 6.90662 17.8058 6.90662 19.5733 6.90662C21.3408 6.90662 22.225 6.90662 22.7741 7.45578C23.3233 8.00495 23.3233 8.88912 23.3233 10.6566C23.3233 12.4241 23.3233 13.3083 22.7741 13.8574C22.225 14.4066 21.3408 14.4066 19.5733 14.4066ZM20.1983 8.98995C20.1983 8.82419 20.1325 8.66522 20.0152 8.54801C19.898 8.4308 19.7391 8.36495 19.5733 8.36495C19.4075 8.36495 19.2486 8.4308 19.1314 8.54801C19.0142 8.66522 18.9483 8.82419 18.9483 8.98995V10.0316H17.9066C17.7409 10.0316 17.5819 10.0975 17.4647 10.2147C17.3475 10.3319 17.2816 10.4909 17.2816 10.6566C17.2816 10.8224 17.3475 10.9813 17.4647 11.0986C17.5819 11.2158 17.7409 11.2816 17.9066 11.2816H18.9483V12.3233C18.9483 12.489 19.0142 12.648 19.1314 12.7652C19.2486 12.8824 19.4075 12.9483 19.5733 12.9483C19.7391 12.9483 19.898 12.8824 20.0152 12.7652C20.1325 12.648 20.1983 12.489 20.1983 12.3233V11.2816H21.24C21.4057 11.2816 21.5647 11.2158 21.6819 11.0986C21.7991 10.9813 21.865 10.8224 21.865 10.6566C21.865 10.4909 21.7991 10.3319 21.6819 10.2147C21.5647 10.0975 21.4057 10.0316 21.24 10.0316H20.1983V8.98995Z" fill="#637381"/>
</svg>
