<svg width="36" height="37" viewBox="0 0 36 37" fill="none" xmlns="http://www.w3.org/2000/svg">
<path fill-rule="evenodd" clip-rule="evenodd" d="M19.4925 12.6841C19.4925 11.1508 20.7425 9.90662 22.2825 9.90662C22.6481 9.90575 23.0103 9.97689 23.3485 10.116C23.6866 10.2551 23.994 10.4595 24.2532 10.7174C24.5123 10.9753 24.7181 11.2817 24.8589 11.6192C24.9996 11.9566 25.0725 12.3185 25.0733 12.6841C25.0733 14.2183 23.8233 15.4625 22.2825 15.4625C21.913 15.4629 21.5471 15.3899 21.206 15.2477C20.865 15.1055 20.5556 14.8969 20.2958 14.6341L16.4333 17.2641C16.5409 17.8 16.4882 18.3556 16.2817 18.8616L20.5167 21.645C21.0155 21.2382 21.6397 21.0164 22.2833 21.0175C22.649 21.0167 23.0112 21.0879 23.3492 21.2272C23.6873 21.3664 23.9947 21.5708 24.2538 21.8288C24.5128 22.0868 24.7186 22.3933 24.8592 22.7308C24.9998 23.0683 25.0726 23.4302 25.0733 23.7958C25.0733 25.3291 23.8233 26.5733 22.2825 26.5733C21.5442 26.5748 20.8356 26.2831 20.3124 25.7622C19.7892 25.2414 19.4943 24.5341 19.4925 23.7958C19.4919 23.4063 19.574 23.0212 19.7333 22.6658L15.5317 19.9066C15.0229 20.349 14.3709 20.5921 13.6967 20.5908C13.331 20.5917 12.9688 20.5205 12.6306 20.3813C12.2925 20.2421 11.9851 20.0377 11.726 19.7797C11.4669 19.5217 11.2612 19.2151 11.1206 18.8776C10.98 18.5401 10.9073 18.1781 10.9067 17.8125C10.9074 17.4469 10.9802 17.085 11.1209 16.7476C11.2615 16.4101 11.4672 16.1037 11.7263 15.8458C11.9854 15.5878 12.2928 15.3835 12.6308 15.2444C12.9689 15.1052 13.3311 15.0341 13.6967 15.035C14.5833 15.035 15.3717 15.4458 15.8825 16.0858L19.6267 13.5366C19.5376 13.2612 19.4923 12.9736 19.4925 12.6841Z" fill="#637381"/>
</svg>
