<svg width="30" height="31" viewBox="0 0 30 31" fill="none" xmlns="http://www.w3.org/2000/svg">
<path d="M14.99 6.90662C19.5925 6.90662 23.3233 10.6374 23.3233 15.2399C23.3233 19.8424 19.5925 23.5733 14.99 23.5733C10.3875 23.5733 6.65668 19.8424 6.65668 15.2399C6.65668 10.6374 10.3875 6.90662 14.99 6.90662ZM14.99 8.57328C13.2219 8.57328 11.5262 9.27566 10.276 10.5259C9.02572 11.7761 8.32334 13.4718 8.32334 15.2399C8.32334 17.0081 9.02572 18.7038 10.276 19.954C11.5262 21.2042 13.2219 21.9066 14.99 21.9066C16.7581 21.9066 18.4538 21.2042 19.7041 19.954C20.9543 18.7038 21.6567 17.0081 21.6567 15.2399C21.6567 13.4718 20.9543 11.7761 19.7041 10.5259C18.4538 9.27566 16.7581 8.57328 14.99 8.57328ZM19.1567 16.0733C19.1567 17.1784 18.7177 18.2382 17.9363 19.0196C17.1549 19.801 16.0951 20.2399 14.99 20.2399C13.8849 20.2399 12.8251 19.801 12.0437 19.0196C11.2623 18.2382 10.8233 17.1784 10.8233 16.0733H19.1567Z" fill="#637381"/>
</svg>
