<svg width="36" height="37" viewBox="0 0 36 37" fill="none" xmlns="http://www.w3.org/2000/svg">
<path d="M17.99 20.1666C18.9104 20.1666 19.6566 19.4205 19.6566 18.5C19.6566 17.5795 18.9104 16.8333 17.99 16.8333C17.0695 16.8333 16.3233 17.5795 16.3233 18.5C16.3233 19.4205 17.0695 20.1666 17.99 20.1666Z" fill="#637381"/>
<path d="M17.99 14.3333C18.9104 14.3333 19.6566 13.5871 19.6566 12.6667C19.6566 11.7462 18.9104 11 17.99 11C17.0695 11 16.3233 11.7462 16.3233 12.6667C16.3233 13.5871 17.0695 14.3333 17.99 14.3333Z" fill="#637381"/>
<path d="M17.99 26C18.9104 26 19.6566 25.2538 19.6566 24.3334C19.6566 23.4129 18.9104 22.6667 17.99 22.6667C17.0695 22.6667 16.3233 23.4129 16.3233 24.3334C16.3233 25.2538 17.0695 26 17.99 26Z" fill="#637381"/>
</svg>
