<svg width="25" height="25" viewBox="0 0 25 25" fill="none" xmlns="http://www.w3.org/2000/svg">
<g clip-path="url(#clip0_1_334)">
<path d="M9.3201 10.5C11.5292 10.5 13.3201 8.70914 13.3201 6.5C13.3201 4.29086 11.5292 2.5 9.3201 2.5C7.11096 2.5 5.3201 4.29086 5.3201 6.5C5.3201 8.70914 7.11096 10.5 9.3201 10.5Z" fill="#637381"/>
<path d="M9.3201 21.501C13.1861 21.501 16.3201 19.7101 16.3201 17.501C16.3201 15.2918 13.1861 13.501 9.3201 13.501C5.45411 13.501 2.3201 15.2918 2.3201 17.501C2.3201 19.7101 5.45411 21.501 9.3201 21.501Z" fill="#637381"/>
<path d="M21.3191 17.5C21.3191 19.157 19.2831 20.5 16.7981 20.5C17.5301 19.7 18.0341 18.695 18.0341 17.502C18.0341 16.307 17.5291 15.302 16.7951 14.501C19.2811 14.5 21.3191 15.844 21.3191 17.5ZM18.3191 6.50002C18.3194 6.98273 18.2033 7.4584 17.9805 7.88663C17.7577 8.31485 17.4348 8.683 17.0394 8.9598C16.6439 9.2366 16.1875 9.41388 15.7088 9.47659C15.2302 9.5393 14.7435 9.48559 14.2901 9.32002C14.7786 8.46056 15.0347 7.48862 15.0331 6.50002C15.0331 5.47502 14.7631 4.51302 14.2911 3.68102C14.7445 3.51565 15.2311 3.4621 15.7095 3.52491C16.188 3.58772 16.6443 3.76503 17.0397 4.04181C17.435 4.31859 17.7577 4.68665 17.9805 5.11477C18.2032 5.54289 18.3194 6.01742 18.3191 6.50002Z" fill="#637381"/>
</g>
<defs>
<clipPath id="clip0_1_334">
<rect width="24" height="24" fill="white" transform="translate(0.319092 0.5)"/>
</clipPath>
</defs>
</svg>
