<svg width="25" height="25" viewBox="0 0 25 25" fill="none" xmlns="http://www.w3.org/2000/svg">
<g clip-path="url(#clip0_1_342)">
<path d="M19.412 10.577C19.412 11.316 18.787 11.915 18.016 11.915C17.246 11.915 16.621 11.315 16.621 10.577C16.621 9.83799 17.246 9.23999 18.016 9.23999C18.786 9.23999 19.412 9.83799 19.412 10.577Z" fill="#637381"/>
<path fill-rule="evenodd" clip-rule="evenodd" d="M18.936 6.032C17.876 5.896 16.522 5.896 14.813 5.896H10.987C9.27702 5.896 7.92302 5.896 6.86402 6.032C5.77402 6.173 4.89002 6.469 4.19402 7.136C3.49802 7.804 3.18902 8.65 3.04202 9.696C2.90002 10.71 2.90002 12.008 2.90002 13.647V13.747C2.90002 15.386 2.90002 16.684 3.04202 17.7C3.18902 18.745 3.49802 19.591 4.19402 20.258C4.89002 20.926 5.77402 21.222 6.86402 21.362C7.92402 21.5 9.27802 21.5 10.987 21.5H14.813C16.523 21.5 17.877 21.5 18.936 21.363C20.026 21.223 20.91 20.927 21.606 20.259C22.302 19.592 22.611 18.746 22.758 17.701C22.9 16.685 22.9 15.387 22.9 13.748V13.648C22.9 12.008 22.9 10.711 22.758 9.695C22.611 8.65 22.302 7.804 21.606 7.136C20.91 6.469 20.026 6.173 18.936 6.032ZM7.05002 7.358C6.11402 7.478 5.57502 7.705 5.18002 8.082C4.78702 8.46 4.55102 8.976 4.42502 9.873C4.32502 10.593 4.30202 11.493 4.29702 12.669L4.76702 12.274C5.89202 11.331 7.58602 11.385 8.64202 12.397L12.632 16.222C12.8298 16.4085 13.085 16.5223 13.3558 16.5448C13.6267 16.5673 13.8972 16.4972 14.123 16.346L14.401 16.159C15.0532 15.7229 15.8297 15.5114 16.6129 15.5565C17.3961 15.6016 18.1433 15.9009 18.741 16.409L21.148 18.487C21.246 18.223 21.321 17.907 21.375 17.522C21.503 16.606 21.505 15.398 21.505 13.698C21.505 11.998 21.503 10.79 21.375 9.873C21.249 8.976 21.013 8.46 20.619 8.083C20.226 7.705 19.686 7.479 18.75 7.358C17.794 7.235 16.534 7.233 14.76 7.233H11.04C9.26602 7.233 8.00602 7.235 7.05002 7.358Z" fill="#637381"/>
<path d="M17.986 3.11C17.126 3 16.032 3 14.667 3H11.577C10.213 3 9.11805 3 8.25805 3.11C7.36805 3.225 6.62605 3.468 6.03705 4.03C5.71198 4.34202 5.4641 4.72549 5.31305 5.15C5.81705 4.92 6.38705 4.784 7.02705 4.7C8.11105 4.56 9.49705 4.56 11.247 4.56H15.161C16.911 4.56 18.2961 4.56 19.3811 4.7C19.939 4.773 20.445 4.886 20.9 5.066C20.7477 4.6746 20.5115 4.32131 20.208 4.031C19.6191 3.468 18.877 3.225 17.986 3.111" fill="#637381"/>
</g>
<defs>
<clipPath id="clip0_1_342">
<rect width="24" height="24" fill="white" transform="translate(0.900024 0.5)"/>
</clipPath>
</defs>
</svg>
