<svg width="24" height="25" viewBox="0 0 24 25" fill="none" xmlns="http://www.w3.org/2000/svg">
<path d="M15.15 8.90006C14.3835 8.89743 13.6241 9.04595 12.9151 9.33714C12.2061 9.62832 11.5615 10.0564 11.0182 10.597C10.4748 11.1376 10.0434 11.78 9.74855 12.4875C9.45373 13.1949 9.3013 13.9536 9.29999 14.7201V20.6001C9.29999 20.8388 9.39481 21.0677 9.56359 21.2365C9.73237 21.4052 9.96129 21.5001 10.2 21.5001H12.3C12.5387 21.5001 12.7676 21.4052 12.9364 21.2365C13.1052 21.0677 13.2 20.8388 13.2 20.6001V14.7201C13.1998 14.4475 13.257 14.1779 13.368 13.9289C13.479 13.6799 13.6412 13.4571 13.8441 13.275C14.0469 13.0929 14.2859 12.9556 14.5453 12.872C14.8048 12.7885 15.079 12.7606 15.35 12.7901C15.836 12.8513 16.2826 13.0887 16.6052 13.4574C16.9278 13.826 17.1038 14.3002 17.1 14.7901V20.6001C17.1 20.8388 17.1948 21.0677 17.3636 21.2365C17.5324 21.4052 17.7613 21.5001 18 21.5001H20.1C20.3387 21.5001 20.5676 21.4052 20.7364 21.2365C20.9052 21.0677 21 20.8388 21 20.6001V14.7201C20.9987 13.9536 20.8462 13.1949 20.5514 12.4875C20.2566 11.78 19.8252 11.1376 19.2818 10.597C18.7385 10.0564 18.0939 9.62832 17.3849 9.33714C16.6759 9.04595 15.9164 8.89743 15.15 8.90006Z" fill="#007EBB"/>
<path d="M6.6 9.80005H3.9C3.40294 9.80005 3 10.203 3 10.7V20.6C3 21.0971 3.40294 21.5 3.9 21.5H6.6C7.09706 21.5 7.5 21.0971 7.5 20.6V10.7C7.5 10.203 7.09706 9.80005 6.6 9.80005Z" fill="#007EBB"/>
<path d="M5.25 8C6.49264 8 7.5 6.99264 7.5 5.75C7.5 4.50736 6.49264 3.5 5.25 3.5C4.00736 3.5 3 4.50736 3 5.75C3 6.99264 4.00736 8 5.25 8Z" fill="#007EBB"/>
</svg>
