<svg width="24" height="25" viewBox="0 0 24 25" fill="none" xmlns="http://www.w3.org/2000/svg">
<path d="M8.08001 20.5C9.55871 20.5495 11.0323 20.3021 12.4138 19.7723C13.7952 19.2426 15.0564 18.4413 16.1229 17.4159C17.1894 16.3904 18.0395 15.1615 18.623 13.8019C19.2065 12.4423 19.5115 10.9795 19.52 9.50004C20.1977 8.66146 20.7009 7.69587 21 6.66004C21.0223 6.57821 21.0205 6.49166 20.9948 6.41082C20.9691 6.32998 20.9206 6.2583 20.855 6.20441C20.7895 6.15052 20.7098 6.11672 20.6256 6.10707C20.5413 6.09743 20.456 6.11235 20.38 6.15004C20.0255 6.3207 19.6264 6.37582 19.2389 6.30765C18.8514 6.23948 18.495 6.05145 18.22 5.77004C17.869 5.38562 17.4443 5.07557 16.9713 4.85827C16.4982 4.64097 15.9863 4.52083 15.466 4.50498C14.9456 4.48913 14.4274 4.57788 13.942 4.76598C13.4565 4.95408 13.0138 5.23771 12.64 5.60004C12.1282 6.0957 11.7533 6.71533 11.5518 7.39872C11.3503 8.0821 11.329 8.806 11.49 9.50004C8.14001 9.70004 5.84001 8.11004 4.00001 5.93004C3.94473 5.86745 3.87242 5.8223 3.79191 5.80011C3.7114 5.77793 3.62617 5.77967 3.54664 5.80512C3.4671 5.83057 3.39669 5.87864 3.34402 5.94344C3.29134 6.00824 3.25868 6.08698 3.25001 6.17004C2.89948 8.11447 3.15234 10.1196 3.97463 11.9161C4.79692 13.7126 6.14926 15.2145 7.85001 16.22C6.70965 17.5279 5.10822 18.3447 3.38001 18.5C3.28742 18.5154 3.20195 18.5593 3.13556 18.6257C3.06917 18.692 3.02518 18.7774 3.00975 18.87C2.99433 18.9626 3.00823 19.0577 3.04951 19.1419C3.0908 19.2262 3.15741 19.2955 3.24001 19.34C4.74353 20.0914 6.39924 20.4882 8.08001 20.5Z" fill="#00AAEC"/>
</svg>
