<svg width="24" height="25" viewBox="0 0 24 25" fill="none" xmlns="http://www.w3.org/2000/svg">
<path d="M17 4.00005C17 3.86745 16.9473 3.74027 16.8536 3.6465C16.7598 3.55273 16.6326 3.50005 16.5 3.50005H14C12.7411 3.43734 11.5086 3.87544 10.5717 4.71863C9.63485 5.56182 9.06978 6.74155 9 8.00005V10.7001H6.5C6.36739 10.7001 6.24021 10.7527 6.14645 10.8465C6.05268 10.9403 6 11.0674 6 11.2001V13.8001C6 13.9327 6.05268 14.0598 6.14645 14.1536C6.24021 14.2474 6.36739 14.3001 6.5 14.3001H9V21.0001C9 21.1327 9.05268 21.2598 9.14645 21.3536C9.24021 21.4474 9.36739 21.5001 9.5 21.5001H12.5C12.6326 21.5001 12.7598 21.4474 12.8536 21.3536C12.9473 21.2598 13 21.1327 13 21.0001V14.3001H15.62C15.7312 14.3017 15.8397 14.2661 15.9285 14.1991C16.0172 14.1321 16.0811 14.0374 16.11 13.9301L16.83 11.3301C16.8499 11.2562 16.8526 11.1787 16.8378 11.1036C16.8231 11.0286 16.7913 10.9579 16.7449 10.897C16.6985 10.8362 16.6388 10.7868 16.5704 10.7526C16.5019 10.7185 16.4265 10.7005 16.35 10.7001H13V8.00005C13.0249 7.75253 13.1411 7.52317 13.326 7.35675C13.5109 7.19033 13.7512 7.09881 14 7.10005H16.5C16.6326 7.10005 16.7598 7.04737 16.8536 6.95361C16.9473 6.85984 17 6.73266 17 6.60005V4.00005Z" fill="#1877F2"/>
</svg>
