<svg width="25" height="25" viewBox="0 0 25 25" fill="none" xmlns="http://www.w3.org/2000/svg">
<g clip-path="url(#clip0_1_319)">
<path fill-rule="evenodd" clip-rule="evenodd" d="M10.959 4.5H14.959C18.73 4.5 20.616 4.5 21.787 5.672C22.959 6.843 22.959 8.729 22.959 12.5C22.959 16.271 22.959 18.157 21.787 19.328C20.616 20.5 18.73 20.5 14.959 20.5H10.959C7.18805 20.5 5.30205 20.5 4.13105 19.328C2.95905 18.157 2.95905 16.271 2.95905 12.5C2.95905 8.729 2.95905 6.843 4.13105 5.672C5.30205 4.5 7.18805 4.5 10.959 4.5ZM14.209 9.5C14.209 9.30109 14.2881 9.11032 14.4287 8.96967C14.5694 8.82902 14.7601 8.75 14.959 8.75H19.959C20.158 8.75 20.3487 8.82902 20.4894 8.96967C20.63 9.11032 20.709 9.30109 20.709 9.5C20.709 9.69891 20.63 9.88968 20.4894 10.0303C20.3487 10.171 20.158 10.25 19.959 10.25H14.959C14.7601 10.25 14.5694 10.171 14.4287 10.0303C14.2881 9.88968 14.209 9.69891 14.209 9.5ZM15.209 12.5C15.209 12.3011 15.2881 12.1103 15.4287 11.9697C15.5694 11.829 15.7601 11.75 15.959 11.75H19.959C20.158 11.75 20.3487 11.829 20.4894 11.9697C20.63 12.1103 20.709 12.3011 20.709 12.5C20.709 12.6989 20.63 12.8897 20.4894 13.0303C20.3487 13.171 20.158 13.25 19.959 13.25H15.959C15.7601 13.25 15.5694 13.171 15.4287 13.0303C15.2881 12.8897 15.209 12.6989 15.209 12.5ZM16.209 15.5C16.209 15.3011 16.2881 15.1103 16.4287 14.9697C16.5694 14.829 16.7601 14.75 16.959 14.75H19.959C20.158 14.75 20.3487 14.829 20.4894 14.9697C20.63 15.1103 20.709 15.3011 20.709 15.5C20.709 15.6989 20.63 15.8897 20.4894 16.0303C20.3487 16.171 20.158 16.25 19.959 16.25H16.959C16.7601 16.25 16.5694 16.171 16.4287 16.0303C16.2881 15.8897 16.209 15.6989 16.209 15.5ZM11.959 9.5C11.959 10.0304 11.7483 10.5391 11.3733 10.9142C10.9982 11.2893 10.4895 11.5 9.95905 11.5C9.42861 11.5 8.9199 11.2893 8.54483 10.9142C8.16976 10.5391 7.95905 10.0304 7.95905 9.5C7.95905 8.96957 8.16976 8.46086 8.54483 8.08579C8.9199 7.71071 9.42861 7.5 9.95905 7.5C10.4895 7.5 10.9982 7.71071 11.3733 8.08579C11.7483 8.46086 11.959 8.96957 11.959 9.5ZM9.95905 17.5C13.959 17.5 13.959 16.605 13.959 15.5C13.959 14.395 12.169 13.5 9.95905 13.5C7.74905 13.5 5.95905 14.395 5.95905 15.5C5.95905 16.605 5.95905 17.5 9.95905 17.5Z" fill="#212B36"/>
</g>
<defs>
<clipPath id="clip0_1_319">
<rect width="24" height="24" fill="white" transform="translate(0.959045 0.5)"/>
</clipPath>
</defs>
</svg>
