<svg width="33" height="25" viewBox="0 0 33 25" fill="none" xmlns="http://www.w3.org/2000/svg">
<g clip-path="url(#clip0_1_451)">
<path d="M18.842 10.577C18.842 11.316 18.217 11.915 17.446 11.915C16.676 11.915 16.051 11.315 16.051 10.577C16.051 9.83799 16.676 9.23999 17.446 9.23999C18.216 9.23999 18.842 9.83799 18.842 10.577Z" fill="#22C55E"/>
<path fill-rule="evenodd" clip-rule="evenodd" d="M18.366 6.032C17.306 5.896 15.952 5.896 14.243 5.896H10.417C8.70699 5.896 7.35299 5.896 6.29399 6.032C5.20399 6.173 4.31999 6.469 3.62399 7.136C2.92799 7.804 2.61899 8.65 2.47199 9.696C2.32999 10.71 2.32999 12.008 2.32999 13.647V13.747C2.32999 15.386 2.32999 16.684 2.47199 17.7C2.61899 18.745 2.92799 19.591 3.62399 20.258C4.31999 20.926 5.20399 21.222 6.29399 21.362C7.35399 21.5 8.70799 21.5 10.417 21.5H14.243C15.953 21.5 17.307 21.5 18.366 21.363C19.456 21.223 20.34 20.927 21.036 20.259C21.732 19.592 22.041 18.746 22.188 17.701C22.33 16.685 22.33 15.387 22.33 13.748V13.648C22.33 12.008 22.33 10.711 22.188 9.695C22.041 8.65 21.732 7.804 21.036 7.136C20.34 6.469 19.456 6.173 18.366 6.032ZM6.47999 7.358C5.54399 7.478 5.00499 7.705 4.60999 8.082C4.21699 8.46 3.98099 8.976 3.85499 9.873C3.75499 10.593 3.73199 11.493 3.72699 12.669L4.19699 12.274C5.32199 11.331 7.01599 11.385 8.07199 12.397L12.062 16.222C12.2597 16.4085 12.5149 16.5223 12.7858 16.5448C13.0567 16.5673 13.3272 16.4972 13.553 16.346L13.831 16.159C14.4831 15.7229 15.2597 15.5114 16.0429 15.5565C16.8261 15.6016 17.5732 15.9009 18.171 16.409L20.578 18.487C20.676 18.223 20.751 17.907 20.805 17.522C20.933 16.606 20.935 15.398 20.935 13.698C20.935 11.998 20.933 10.79 20.805 9.873C20.679 8.976 20.443 8.46 20.049 8.083C19.656 7.705 19.116 7.479 18.18 7.358C17.224 7.235 15.964 7.233 14.19 7.233H10.47C8.69599 7.233 7.43599 7.235 6.47999 7.358Z" fill="#22C55E"/>
<path d="M17.416 3.11C16.556 3 15.462 3 14.097 3H11.007C9.64299 3 8.54799 3 7.68799 3.11C6.79799 3.225 6.05599 3.468 5.46699 4.03C5.14192 4.34202 4.89403 4.72549 4.74299 5.15C5.24699 4.92 5.81699 4.784 6.45699 4.7C7.54099 4.56 8.92699 4.56 10.677 4.56H14.591C16.341 4.56 17.726 4.56 18.811 4.7C19.369 4.773 19.875 4.886 20.33 5.066C20.1777 4.6746 19.9415 4.32131 19.638 4.031C19.049 3.468 18.307 3.225 17.416 3.111" fill="#22C55E"/>
</g>
<defs>
<clipPath id="clip0_1_451">
<rect width="24" height="24" fill="white" transform="translate(0.329987 0.5)"/>
</clipPath>
</defs>
</svg>
